<mxfile host="app.diagrams.net" agent="Mozilla/5.0 (Windows NT 10.0; Win64; x64) AppleWebKit/537.36 (KHTML, like Gecko) Chrome/133.0.0.0 Safari/537.36" version="26.0.15">
  <diagram name="Page-1" id="mynGqa96a9ndCNqvYNBf">
    <mxGraphModel dx="778" dy="512" grid="1" gridSize="10" guides="1" tooltips="1" connect="1" arrows="1" fold="1" page="1" pageScale="1" pageWidth="850" pageHeight="1100" math="0" shadow="0">
      <root>
        <mxCell id="0" />
        <mxCell id="1" parent="0" />
        <mxCell id="KJfv0gg_ucI4pZ0g48hR-12" value="Пользователь" style="shape=umlActor;verticalLabelPosition=bottom;verticalAlign=top;html=1;outlineConnect=0;" vertex="1" parent="1">
          <mxGeometry x="40" y="140" width="30" height="60" as="geometry" />
        </mxCell>
        <mxCell id="KJfv0gg_ucI4pZ0g48hR-50" style="edgeStyle=orthogonalEdgeStyle;shape=connector;curved=1;rounded=0;orthogonalLoop=1;jettySize=auto;html=1;exitX=0.95;exitY=0.55;exitDx=0;exitDy=0;exitPerimeter=0;entryX=0;entryY=0.5;entryDx=0;entryDy=0;shadow=0;strokeColor=default;align=center;verticalAlign=middle;fontFamily=Helvetica;fontSize=11;fontColor=default;labelBackgroundColor=default;endArrow=classic;flowAnimation=1;" edge="1" parent="1" source="KJfv0gg_ucI4pZ0g48hR-20" target="KJfv0gg_ucI4pZ0g48hR-27">
          <mxGeometry relative="1" as="geometry" />
        </mxCell>
        <mxCell id="KJfv0gg_ucI4pZ0g48hR-20" value="Веб-интерфейс" style="points=[[0.13,0.24,0],[0.5,0.2,0],[0.62,0,0],[0.87,0.24,0],[0.95,0.55,0],[0.96,0.95,0],[0.5,1,0],[0.04,0.95,0],[0.05,0.55,0]];verticalLabelPosition=bottom;sketch=0;html=1;verticalAlign=top;aspect=fixed;align=center;pointerEvents=1;shape=mxgraph.cisco19.joystick_keyboard;fillColor=#005073;strokeColor=none;" vertex="1" parent="1">
          <mxGeometry x="110" y="30" width="72" height="40" as="geometry" />
        </mxCell>
        <mxCell id="KJfv0gg_ucI4pZ0g48hR-47" style="edgeStyle=orthogonalEdgeStyle;shape=connector;curved=1;rounded=0;orthogonalLoop=1;jettySize=auto;html=1;exitX=0;exitY=0.5;exitDx=0;exitDy=0;exitPerimeter=0;shadow=0;strokeColor=default;align=center;verticalAlign=middle;fontFamily=Helvetica;fontSize=11;fontColor=default;labelBackgroundColor=default;endArrow=classic;flowAnimation=1;" edge="1" parent="1" source="KJfv0gg_ucI4pZ0g48hR-24" target="KJfv0gg_ucI4pZ0g48hR-42">
          <mxGeometry relative="1" as="geometry" />
        </mxCell>
        <mxCell id="KJfv0gg_ucI4pZ0g48hR-24" value="Сайт (цель)" style="sketch=0;pointerEvents=1;shadow=0;dashed=0;html=1;strokeColor=none;labelPosition=center;verticalLabelPosition=bottom;verticalAlign=top;align=center;fillColor=#515151;shape=mxgraph.mscae.system_center.primary_site" vertex="1" parent="1">
          <mxGeometry x="540" y="20" width="38" height="50" as="geometry" />
        </mxCell>
        <mxCell id="KJfv0gg_ucI4pZ0g48hR-44" style="edgeStyle=orthogonalEdgeStyle;shape=connector;curved=1;rounded=0;orthogonalLoop=1;jettySize=auto;html=1;exitX=0;exitY=0.5;exitDx=0;exitDy=0;exitPerimeter=0;shadow=0;strokeColor=default;align=center;verticalAlign=middle;fontFamily=Helvetica;fontSize=11;fontColor=default;labelBackgroundColor=default;endArrow=classic;flowAnimation=1;entryX=0;entryY=0.5;entryDx=0;entryDy=0;" edge="1" parent="1" source="KJfv0gg_ucI4pZ0g48hR-25" target="KJfv0gg_ucI4pZ0g48hR-27">
          <mxGeometry relative="1" as="geometry">
            <mxPoint x="290" y="130" as="targetPoint" />
          </mxGeometry>
        </mxCell>
        <mxCell id="KJfv0gg_ucI4pZ0g48hR-25" value="Конфигурации" style="verticalLabelPosition=bottom;html=1;verticalAlign=top;align=center;strokeColor=none;fillColor=#00BEF2;shape=mxgraph.azure.cloud_services_configuration_file;pointerEvents=1;" vertex="1" parent="1">
          <mxGeometry x="276.25" y="10" width="47.5" height="50" as="geometry" />
        </mxCell>
        <mxCell id="KJfv0gg_ucI4pZ0g48hR-43" style="edgeStyle=orthogonalEdgeStyle;shape=connector;curved=1;rounded=0;orthogonalLoop=1;jettySize=auto;html=1;exitX=1;exitY=0.5;exitDx=0;exitDy=0;shadow=0;strokeColor=default;align=center;verticalAlign=middle;fontFamily=Helvetica;fontSize=11;fontColor=default;labelBackgroundColor=default;endArrow=classic;flowAnimation=1;" edge="1" parent="1" source="KJfv0gg_ucI4pZ0g48hR-27" target="KJfv0gg_ucI4pZ0g48hR-42">
          <mxGeometry relative="1" as="geometry" />
        </mxCell>
        <mxCell id="KJfv0gg_ucI4pZ0g48hR-27" value="Сервер (мозг)" style="image;html=1;image=img/lib/clip_art/computers/Server_Rack_128x128.png" vertex="1" parent="1">
          <mxGeometry x="260" y="110" width="80" height="80" as="geometry" />
        </mxCell>
        <mxCell id="KJfv0gg_ucI4pZ0g48hR-41" style="edgeStyle=orthogonalEdgeStyle;shape=connector;curved=1;rounded=0;orthogonalLoop=1;jettySize=auto;html=1;exitX=1;exitY=0.5;exitDx=0;exitDy=0;entryX=1;entryY=0.5;entryDx=0;entryDy=0;entryPerimeter=0;shadow=0;strokeColor=default;align=center;verticalAlign=middle;fontFamily=Helvetica;fontSize=11;fontColor=default;labelBackgroundColor=default;endArrow=classic;flowAnimation=1;" edge="1" parent="1" source="KJfv0gg_ucI4pZ0g48hR-27" target="KJfv0gg_ucI4pZ0g48hR-25">
          <mxGeometry relative="1" as="geometry" />
        </mxCell>
        <mxCell id="KJfv0gg_ucI4pZ0g48hR-55" style="edgeStyle=orthogonalEdgeStyle;shape=connector;curved=1;rounded=0;orthogonalLoop=1;jettySize=auto;html=1;exitX=1;exitY=0.5;exitDx=0;exitDy=0;exitPerimeter=0;entryX=1;entryY=0.5;entryDx=0;entryDy=0;shadow=0;strokeColor=default;align=center;verticalAlign=middle;fontFamily=Helvetica;fontSize=11;fontColor=default;labelBackgroundColor=default;endArrow=classic;flowAnimation=1;" edge="1" parent="1" source="KJfv0gg_ucI4pZ0g48hR-42" target="KJfv0gg_ucI4pZ0g48hR-53">
          <mxGeometry relative="1" as="geometry" />
        </mxCell>
        <mxCell id="KJfv0gg_ucI4pZ0g48hR-42" value="Скрипт (руки)" style="outlineConnect=0;dashed=0;verticalLabelPosition=bottom;verticalAlign=top;align=center;html=1;shape=mxgraph.aws3.users;fillColor=#ACACAC;gradientColor=none;fontFamily=Helvetica;fontSize=11;fontColor=default;labelBackgroundColor=default;" vertex="1" parent="1">
          <mxGeometry x="416" y="118.5" width="66" height="63" as="geometry" />
        </mxCell>
        <mxCell id="KJfv0gg_ucI4pZ0g48hR-46" style="edgeStyle=orthogonalEdgeStyle;shape=connector;curved=1;rounded=0;orthogonalLoop=1;jettySize=auto;html=1;exitX=1;exitY=0.5;exitDx=0;exitDy=0;exitPerimeter=0;entryX=1;entryY=0.56;entryDx=0;entryDy=0;entryPerimeter=0;shadow=0;strokeColor=default;align=center;verticalAlign=middle;fontFamily=Helvetica;fontSize=11;fontColor=default;labelBackgroundColor=default;endArrow=classic;flowAnimation=1;" edge="1" parent="1" source="KJfv0gg_ucI4pZ0g48hR-42" target="KJfv0gg_ucI4pZ0g48hR-24">
          <mxGeometry relative="1" as="geometry" />
        </mxCell>
        <mxCell id="KJfv0gg_ucI4pZ0g48hR-56" style="edgeStyle=orthogonalEdgeStyle;shape=connector;curved=1;rounded=0;orthogonalLoop=1;jettySize=auto;html=1;exitX=0;exitY=0.5;exitDx=0;exitDy=0;entryX=1;entryY=0.5;entryDx=0;entryDy=0;shadow=0;strokeColor=default;align=center;verticalAlign=middle;fontFamily=Helvetica;fontSize=11;fontColor=default;labelBackgroundColor=default;endArrow=classic;flowAnimation=1;" edge="1" parent="1" source="KJfv0gg_ucI4pZ0g48hR-53" target="KJfv0gg_ucI4pZ0g48hR-27">
          <mxGeometry relative="1" as="geometry" />
        </mxCell>
        <mxCell id="KJfv0gg_ucI4pZ0g48hR-53" value="Результат работы" style="shape=rect;fillColor=#0F62FE;aspect=fixed;resizable=0;labelPosition=center;verticalLabelPosition=bottom;align=center;verticalAlign=top;strokeColor=none;fontSize=14;fontFamily=Helvetica;fontColor=default;labelBackgroundColor=default;" vertex="1" parent="1">
          <mxGeometry x="425" y="310" width="48" height="48" as="geometry" />
        </mxCell>
        <mxCell id="KJfv0gg_ucI4pZ0g48hR-54" value="" style="fillColor=#ffffff;strokeColor=none;dashed=0;outlineConnect=0;html=1;labelPosition=center;verticalLabelPosition=bottom;verticalAlign=top;part=1;movable=0;resizable=0;rotatable=0;shape=mxgraph.ibm_cloud.ibm-cloud-pak--data;fontFamily=Helvetica;fontSize=11;fontColor=default;labelBackgroundColor=default;" vertex="1" parent="KJfv0gg_ucI4pZ0g48hR-53">
          <mxGeometry width="24" height="24" relative="1" as="geometry">
            <mxPoint x="12" y="12" as="offset" />
          </mxGeometry>
        </mxCell>
        <mxCell id="KJfv0gg_ucI4pZ0g48hR-60" style="edgeStyle=orthogonalEdgeStyle;shape=connector;curved=1;rounded=0;orthogonalLoop=1;jettySize=auto;html=1;exitX=0.5;exitY=0;exitDx=0;exitDy=0;exitPerimeter=0;shadow=0;strokeColor=default;align=center;verticalAlign=middle;fontFamily=Helvetica;fontSize=11;fontColor=default;labelBackgroundColor=default;endArrow=classic;flowAnimation=1;" edge="1" parent="1" source="KJfv0gg_ucI4pZ0g48hR-58" target="KJfv0gg_ucI4pZ0g48hR-20">
          <mxGeometry relative="1" as="geometry" />
        </mxCell>
        <mxCell id="KJfv0gg_ucI4pZ0g48hR-58" value="Результат&lt;div&gt;для&lt;/div&gt;&lt;div&gt;пользователя&lt;/div&gt;" style="sketch=0;points=[[0,0,0],[0.25,0,0],[0.5,0,0],[0.75,0,0],[1,0,0],[0,1,0],[0.25,1,0],[0.5,1,0],[0.75,1,0],[1,1,0],[0,0.25,0],[0,0.5,0],[0,0.75,0],[1,0.25,0],[1,0.5,0],[1,0.75,0]];outlineConnect=0;fontColor=#232F3E;gradientColor=#F34482;gradientDirection=north;fillColor=#BC1356;strokeColor=#ffffff;dashed=0;verticalLabelPosition=bottom;verticalAlign=top;align=center;html=1;fontSize=12;fontStyle=0;aspect=fixed;shape=mxgraph.aws4.resourceIcon;resIcon=mxgraph.aws4.sumerian;fontFamily=Helvetica;labelBackgroundColor=default;" vertex="1" parent="1">
          <mxGeometry x="150" y="230" width="81" height="81" as="geometry" />
        </mxCell>
        <mxCell id="KJfv0gg_ucI4pZ0g48hR-59" style="edgeStyle=orthogonalEdgeStyle;shape=connector;curved=1;rounded=0;orthogonalLoop=1;jettySize=auto;html=1;exitX=0;exitY=0.5;exitDx=0;exitDy=0;entryX=0.5;entryY=0;entryDx=0;entryDy=0;entryPerimeter=0;shadow=0;strokeColor=default;align=center;verticalAlign=middle;fontFamily=Helvetica;fontSize=11;fontColor=default;labelBackgroundColor=default;endArrow=classic;flowAnimation=1;" edge="1" parent="1" source="KJfv0gg_ucI4pZ0g48hR-27" target="KJfv0gg_ucI4pZ0g48hR-58">
          <mxGeometry relative="1" as="geometry" />
        </mxCell>
        <mxCell id="KJfv0gg_ucI4pZ0g48hR-62" style="edgeStyle=orthogonalEdgeStyle;shape=connector;curved=1;rounded=0;orthogonalLoop=1;jettySize=auto;html=1;exitX=0.13;exitY=0.24;exitDx=0;exitDy=0;exitPerimeter=0;entryX=0.5;entryY=0;entryDx=0;entryDy=0;entryPerimeter=0;shadow=0;strokeColor=default;align=center;verticalAlign=middle;fontFamily=Helvetica;fontSize=11;fontColor=default;labelBackgroundColor=default;endArrow=classic;flowAnimation=1;" edge="1" parent="1" source="KJfv0gg_ucI4pZ0g48hR-20" target="KJfv0gg_ucI4pZ0g48hR-12">
          <mxGeometry relative="1" as="geometry">
            <Array as="points">
              <mxPoint x="55" y="40" />
            </Array>
          </mxGeometry>
        </mxCell>
        <mxCell id="KJfv0gg_ucI4pZ0g48hR-64" style="edgeStyle=orthogonalEdgeStyle;shape=connector;curved=1;rounded=0;orthogonalLoop=1;jettySize=auto;html=1;exitX=0.75;exitY=0.1;exitDx=0;exitDy=0;exitPerimeter=0;entryX=0.5;entryY=1;entryDx=0;entryDy=0;entryPerimeter=0;shadow=0;strokeColor=default;align=center;verticalAlign=middle;fontFamily=Helvetica;fontSize=11;fontColor=default;labelBackgroundColor=default;endArrow=classic;flowAnimation=1;" edge="1" parent="1" source="KJfv0gg_ucI4pZ0g48hR-12" target="KJfv0gg_ucI4pZ0g48hR-20">
          <mxGeometry relative="1" as="geometry" />
        </mxCell>
      </root>
    </mxGraphModel>
  </diagram>
</mxfile>
